# xmcd
#
# Track frame offsets:
# 150
# 17657
# 32102
# 48187
# 64330
# 87682
# 105802
# 124445
# 142065
# 163382
#
# Disc length: 2336 seconds
#
#
# Revision: 0
# Processed by: cddbd v1.5.1PL0 Copyright (c) Steve Scherf et al.
# Submitted via: FreeRIP 2.941 
#
DISCID=8e091e0a
DTITLE=Carl Peyer - C.P.
DYEAR=1987
DGENRE=Blues
TTITLE0=Mexico, Rio, Shanghai
TTITLE1=Des Lern I Nie
TTITLE2=Aufgeben
TTITLE3=Du Bist Wie A Wunder
TTITLE4=Gustl
TTITLE5=Abenteuer
TTITLE6=Romeo Und Julia
TTITLE7=Traumtänzer
TTITLE8=Endlich Bin I Da Bei Dir
TTITLE9=Leb' Dei Leben
EXTD=
EXTT0=
EXTT1=
EXTT2=
EXTT3=
EXTT4=
EXTT5=
EXTT6=
EXTT7=
EXTT8=
EXTT9=
PLAYORDER=
